<?xml version="1.0" encoding="UTF-8"?>
<svg version="1.1" xmlns="http://www.w3.org/2000/svg" width="645" height="387">
<path d="M0 0 C2.14300809 -0.00406997 4.28601407 -0.00941424 6.42901611 -0.01593018 C12.22435864 -0.02955803 18.01954019 -0.02432404 23.81488538 -0.01479292 C29.89205167 -0.00717382 35.9692046 -0.01424808 42.04637146 -0.01895142 C52.24887556 -0.02440199 62.45131441 -0.01723521 72.65380859 -0.00292969 C84.43555254 0.01339981 96.21714074 0.00810325 107.99888092 -0.0084089 C118.13082349 -0.0220384 128.26271927 -0.02393639 138.39466804 -0.0160929 C144.43894022 -0.01142501 150.48313927 -0.01076731 156.52740669 -0.02070236 C162.2098886 -0.02939117 167.89217036 -0.02331502 173.57463074 -0.00601959 C175.65547288 -0.00206518 177.73633197 -0.0031708 179.81716728 -0.00980759 C182.66626442 -0.01805447 185.51472759 -0.00766376 188.36378479 0.00723267 C189.17927074 0.0005405 189.99475668 -0.00615166 190.83495432 -0.01304662 C200.82248519 0.08764389 208.47207134 2.83386759 215.67358398 9.79833984 C219.10751614 13.9681146 220.51436674 18.20521371 221.80639648 23.38818359 C222.1737793 24.52126953 222.1737793 24.52126953 222.54858398 25.67724609 C225.65395021 36.83356178 222.37830447 49.67833199 219.86889648 60.70068359 C219.71146973 61.39943604 219.55404297 62.09818848 219.3918457 62.81811523 C218.41342894 66.82139704 217.05574069 69.95084795 214.80639648 73.38818359 C214.12577148 75.02787109 214.12577148 75.02787109 213.43139648 76.70068359 C211.7108523 80.833631 209.58114684 84.8625107 206.80639648 88.38818359 C206.14639648 88.38818359 205.48639648 88.38818359 204.80639648 88.38818359 C204.62077148 89.08943359 204.43514648 89.79068359 204.24389648 90.51318359 C199.93324701 99.13448255 188.87642777 104.47096509 180.15927124 107.55456543 C173.46347579 109.2193269 166.61612922 108.87255857 159.76342773 108.77880859 C158.14247847 108.77133193 156.52152007 108.76564575 154.90055847 108.76165771 C150.67046375 108.74651328 146.44093383 108.70733093 142.21105957 108.6628418 C137.88028601 108.62164489 133.54941962 108.603595 129.21850586 108.58349609 C120.7475459 108.54082335 112.2770418 108.47271131 103.80639648 108.38818359 C103.74132401 109.00709976 103.67625153 109.62601593 103.60920715 110.26368713 C103.52192856 111.07506638 103.43464996 111.88644562 103.34472656 112.72241211 C103.25902908 113.52695328 103.1733316 114.33149445 103.08503723 115.16041565 C102.77458617 117.6425111 102.22551119 119.93465231 101.49389648 122.32568359 C100.10431 127.1689996 98.94823522 132.03129866 97.86889648 136.95068359 C97.70172119 137.71155273 97.5345459 138.47242188 97.36230469 139.25634766 C96.84189448 141.63324262 96.3239796 144.01067156 95.80639648 146.38818359 C95.1012643 149.61806114 94.39219907 152.84704987 93.68139648 156.07568359 C93.52292236 156.80537354 93.36444824 157.53506348 93.20117188 158.28686523 C92.97095337 159.3328186 92.97095337 159.3328186 92.73608398 160.39990234 C92.60443848 161.00278076 92.47279297 161.60565918 92.3371582 162.22680664 C91.58160983 165.30356364 90.6767591 168.34191442 89.80639648 171.38818359 C78.58639648 171.38818359 67.36639648 171.38818359 55.80639648 171.38818359 C56.92085432 161.35806311 56.92085432 161.35806311 58.18139648 156.76318359 C59.30890304 152.44736901 60.27761974 148.14379624 61.11889648 143.76318359 C62.55613873 136.41642933 64.1940847 129.12174339 65.86889648 121.82568359 C66.12646729 120.69501465 66.38403809 119.5643457 66.64941406 118.39941406 C66.89844482 117.32191895 67.14747559 116.24442383 67.40405273 115.13427734 C67.73675171 113.69072876 67.73675171 113.69072876 68.07617188 112.21801758 C68.80639648 109.38818359 68.80639648 109.38818359 69.83374023 106.34887695 C70.7252456 103.63520085 71.30588607 101.0835762 71.77124023 98.27099609 C72.81784052 92.23283883 74.06864931 86.25126551 75.36889648 80.26318359 C75.70050781 78.70470703 75.70050781 78.70470703 76.03881836 77.11474609 C76.2521582 76.12990234 76.46549805 75.14505859 76.68530273 74.13037109 C76.87680908 73.2420459 77.06831543 72.3537207 77.265625 71.43847656 C77.80639648 69.38818359 77.80639648 69.38818359 78.80639648 68.38818359 C81.79295261 68.27347881 84.75731552 68.22331762 87.74487305 68.21459961 C88.68308395 68.2079126 89.62129486 68.20122559 90.5879364 68.19433594 C92.63304577 68.18024856 94.6781712 68.16836638 96.72330475 68.15838814 C99.95929256 68.1420278 103.19516182 68.11879087 106.43109131 68.0934906 C115.63442102 68.02258639 124.83780011 67.96262816 134.04125977 67.91137695 C139.66401877 67.87958188 145.28664368 67.83830008 150.90929413 67.79118156 C153.05427384 67.77515905 155.19928449 67.76283864 157.34430695 67.75427437 C160.34645689 67.74211847 163.348292 67.7179657 166.3503418 67.69116211 C167.23781601 67.69057297 168.12529022 67.68998383 169.03965759 67.68937683 C173.3742735 67.63810475 176.9029346 67.50713202 180.80639648 65.38818359 C185.75915617 59.93403342 186.31562224 53.99294382 186.07983398 46.89208984 C185.95367864 44.39318751 185.95367864 44.39318751 184.80639648 42.38818359 C157.23416517 42.27147961 129.66197077 42.18325877 102.08954239 42.12912273 C89.28771976 42.10332043 76.48605042 42.068131 63.68432617 42.01098633 C52.52879542 41.96121364 41.37337566 41.92890734 30.21773696 41.91774112 C24.3086357 41.91121202 18.39985202 41.89582437 12.49085236 41.85953331 C6.93242733 41.82567098 1.3744516 41.81511097 -4.18406677 41.82264519 C-6.22713409 41.82126627 -8.27021596 41.811276 -10.31319427 41.79215622 C-13.09743506 41.76737081 -15.87996738 41.77322517 -18.66424561 41.78691101 C-19.88409011 41.7650647 -19.88409011 41.7650647 -21.12857795 41.74277705 C-25.05875223 41.79519335 -26.78466042 41.98890293 -29.64856339 44.78513813 C-32.91270281 50.28447964 -34.00784864 54.99396453 -33.19360352 61.38818359 C-31.57691177 64.4451745 -31.57691177 64.4451745 -29.38044739 65.0705719 C-26.9522497 65.42323721 -24.65851841 65.49326327 -22.20410156 65.4699707 C-21.21173996 65.46343979 -20.21937836 65.45690887 -19.19694519 65.45018005 C-18.12720963 65.43874466 -17.05747406 65.42730927 -15.95532227 65.41552734 C-13.66691241 65.40286498 -11.37850086 65.39050524 -9.09008789 65.37841797 C-5.50075949 65.35377169 -1.91152053 65.32596946 1.67773438 65.29223633 C38.44661335 64.96847237 38.44661335 64.96847237 46.93920898 71.47412109 C50.35663435 74.97733956 52.61929464 79.04266321 54.80639648 83.38818359 C55.15186523 83.97784912 55.49733398 84.56751465 55.85327148 85.17504883 C61.63298423 98.59541154 56.87133494 118.87709614 51.82592773 131.89990234 C46.48453814 144.34331172 38.73887638 155.2523846 27.80639648 163.38818359 C27.25467773 163.80197266 26.70295898 164.21576172 26.13452148 164.64208984 C13.69086209 173.25495327 -1.25199003 171.78622053 -15.67797852 171.68115234 C-17.94769 171.67554849 -20.21740515 171.67128213 -22.48712158 171.66828918 C-28.42515296 171.65690261 -34.36295987 171.62748927 -40.30090332 171.59417725 C-46.37448084 171.56334225 -52.44809507 171.54975528 -58.52172852 171.53466797 C-70.41245147 171.50261317 -82.30300873 171.45149253 -94.19360352 171.38818359 C-94.03974232 169.78220549 -93.8839765 168.17640978 -93.72740173 166.57069397 C-93.64086303 165.67644746 -93.55432432 164.78220095 -93.46516323 163.86085606 C-93.17572594 161.22540031 -92.71223096 158.70688773 -92.07250977 156.13427734 C-91.7525 154.82233398 -91.7525 154.82233398 -91.42602539 153.48388672 C-91.20495117 152.60667969 -90.98387695 151.72947266 -90.75610352 150.82568359 C-90.31926624 149.05370567 -89.88306249 147.28157145 -89.44750977 145.50927734 C-89.23626465 144.65962402 -89.02501953 143.8099707 -88.80737305 142.93457031 C-88.01943418 139.66559562 -87.31976535 136.38038614 -86.63867188 133.08764648 C-86.19360352 131.38818359 -86.19360352 131.38818359 -85.19360352 130.38818359 C-82.11905591 130.29286032 -79.06701194 130.2626698 -75.9921875 130.2746582 C-74.54356323 130.27443916 -74.54356323 130.27443916 -73.06567383 130.2742157 C-69.85699253 130.27491525 -66.64836849 130.28270963 -63.43969727 130.29052734 C-61.22152234 130.29239137 -59.003347 130.29381535 -56.78517151 130.29481506 C-50.9342028 130.29864144 -45.08325874 130.30847274 -39.2322998 130.31951904 C-33.26693048 130.3297306 -27.30155718 130.33431213 -21.33618164 130.33935547 C-9.62197808 130.3500949 2.09220716 130.36717275 13.80639648 130.38818359 C14.79639648 128.40818359 14.79639648 128.40818359 15.80639648 126.38818359 C16.46639648 126.38818359 17.12639648 126.38818359 17.80639648 126.38818359 C19.556979 121.24584746 20.98917198 115.81090855 19.80639648 110.38818359 C17.64668875 107.6310613 16.46509435 106.50574865 12.97402954 105.88265991 C11.88182098 105.87980988 10.78961243 105.87695984 9.66430664 105.87402344 C7.80184799 105.85412857 7.80184799 105.85412857 5.90176392 105.83383179 C4.54966182 105.83880613 3.19756017 105.84390565 1.84545898 105.84912109 C0.45305846 105.83920996 -0.93932896 105.82726711 -2.33169556 105.81338501 C-5.99549936 105.78102833 -9.6590044 105.77063252 -13.32293701 105.76654053 C-19.17964979 105.75778562 -25.0361169 105.72211946 -30.89262772 105.674366 C-32.93220548 105.66183512 -34.97146963 105.66253448 -37.01107788 105.66464233 C-38.2590213 105.65768341 -39.50696472 105.65072449 -40.79272461 105.64355469 C-41.88652435 105.64229584 -42.9803241 105.64103699 -44.10726929 105.63973999 C-49.69939699 105.18394506 -54.2729469 102.9656704 -59.19360352 100.38818359 C-59.19360352 99.72818359 -59.19360352 99.06818359 -59.19360352 98.38818359 C-59.78786133 98.16001953 -60.38211914 97.93185547 -60.99438477 97.69677734 C-63.79724425 96.02900127 -64.77151724 94.26849402 -66.38110352 91.45068359 C-66.8902832 90.57541016 -67.39946289 89.70013672 -67.92407227 88.79833984 C-73.35386745 78.49008253 -71.56293537 60.90128938 -68.60668945 49.94189453 C-67.590325 46.69821004 -66.44161215 43.55148871 -65.19360352 40.38818359 C-64.71020508 39.07914063 -64.71020508 39.07914063 -64.21704102 37.74365234 C-57.96087342 22.21203627 -47.26856151 10.51764742 -32.19360352 3.38818359 C-21.92265624 -0.82132129 -10.88160587 -0.0347436 0 0 Z " fill="#205CA7" transform="translate(258.193603515625,107.61181640625)"/>
<path d="M0 0 C31.02 0 62.04 0 94 0 C94 0.33 94 0.66 94 1 C74.83606295 1.93905595 55.72731692 2.12915903 36.54675293 2.06866455 C32.85799767 2.05819397 29.16923477 2.05381766 25.48046875 2.04882812 C18.3202949 2.03829517 11.16015045 2.0213691 4 2 C4.01160156 2.69867188 4.02320313 3.39734375 4.03515625 4.1171875 C4.04869141 5.48230469 4.04869141 5.48230469 4.0625 6.875 C4.07410156 7.77992188 4.08570313 8.68484375 4.09765625 9.6171875 C4 12 4 12 3 14 C2.34 14 1.68 14 1 14 C0.67 14.99 0.34 15.98 0 17 C1.32 17.99 2.64 18.98 4 20 C1.63707344 22.52588702 0.33537489 23.88820837 -3 25 C-2.68978487 21.95808469 -2.37690547 18.91648266 -2.0625 15.875 C-1.97548828 15.0190625 -1.88847656 14.163125 -1.79882812 13.28125 C-1.71181641 12.44335938 -1.62480469 11.60546875 -1.53515625 10.7421875 C-1.41732788 9.59532471 -1.41732788 9.59532471 -1.29711914 8.42529297 C-0.95159197 5.60486001 -0.46714287 2.80285722 0 0 Z " fill="#264B87" transform="translate(172,239)"/>
<path d="M0 0 C0.33 0 0.66 0 1 0 C0.4842745 6.18870597 -0.66764282 11.88555506 -2.24609375 17.88671875 C-3.20237149 21.83569989 -3.81538684 25.79809291 -4.375 29.8203125 C-5.25378604 34.29113648 -6.69073595 38.63578649 -8 43 C-19.22 43 -30.44 43 -42 43 C-41.67 40.03 -41.34 37.06 -41 34 C-40.34 34 -39.68 34 -39 34 C-38.67 34.66 -38.34 35.32 -38 36 C-35.97536745 36.65213292 -35.97536745 36.65213292 -34 37 C-36.475 37.495 -36.475 37.495 -39 38 C-38.34 38.33 -37.68 38.66 -37 39 C-37 39.66 -37 40.32 -37 41 C-36.21238281 40.91621094 -35.42476563 40.83242188 -34.61328125 40.74609375 C-26.59856146 39.99678859 -18.99977561 40.14896004 -11 41 C-11.185625 40.40445313 -11.37125 39.80890625 -11.5625 39.1953125 C-12.17988348 36.09737038 -11.02136491 33.9364241 -10 31 C-10.33 30.34 -10.66 29.68 -11 29 C-10.25 25.4375 -10.25 25.4375 -9 22 C-8.01 21.67 -7.02 21.34 -6 21 C-5.18280181 18.30805303 -4.54864587 15.74783981 -4 13 C-3.67123434 11.41571193 -3.33795303 9.83235372 -3 8.25 C-2.855625 7.53328125 -2.71125 6.8165625 -2.5625 6.078125 C-1.96395125 3.86681991 -1.08701396 2.01097583 0 0 Z " fill="#355BA0" transform="translate(356,236)"/>
<path d="M0 0 C1.65 0.33 3.3 0.66 5 1 C5 1.66 5 2.32 5 3 C5.99 3 6.98 3 8 3 C7.67 3.66 7.34 4.32 7 5 C6.01 4.505 6.01 4.505 5 4 C5.01160156 4.60585937 5.02320313 5.21171875 5.03515625 5.8359375 C5.21120363 22.18319455 5.21120363 22.18319455 2 27 C0.68 27 -0.64 27 -2 27 C-3.67739862 27.98189187 -5.34467377 28.98133771 -7 30 C-7.99 30 -8.98 30 -10 30 C-10 29.34 -10 28.68 -10 28 C-41.35 28 -72.7 28 -105 28 C-105 27.67 -105 27.34 -105 27 C-103.80840775 26.99191315 -102.61681549 26.98382629 -101.38911438 26.97549438 C-90.16215772 26.89802619 -78.93532214 26.81028503 -67.70852375 26.71247292 C-61.93664773 26.66251668 -56.16478995 26.61618642 -50.39282227 26.578125 C-44.82307329 26.54126394 -39.25347718 26.49490144 -33.68385887 26.44193649 C-31.55841947 26.42339697 -29.43294731 26.40828738 -27.30745888 26.39665604 C-24.33152216 26.37978625 -21.35593521 26.35074896 -18.38012695 26.31884766 C-17.50043243 26.31668747 -16.62073792 26.31452728 -15.71438599 26.31230164 C-11.39786086 26.25314922 -7.88888043 26.10413908 -4 24 C0.92653929 18.57472464 1.51080338 12.66776219 1.2734375 5.6015625 C1.08277787 2.88944996 1.08277787 2.88944996 0 0 Z " fill="#70A1D3" transform="translate(443,149)"/>
<path d="M0 0 C0 1.32 0 2.64 0 4 C1.65 3.34 3.3 2.68 5 2 C5 1.34 5 0.68 5 0 C5.99 0.33 6.98 0.66 8 1 C7.34 1.99 6.68 2.98 6 4 C5.34 4 4.68 4 4 4 C3.7215625 5.051875 3.7215625 5.051875 3.4375 6.125 C-1.01620268 15.03240536 -12.33965998 20.17313506 -21.30078125 23.28515625 C-25.02964833 24.27268545 -28.16612487 24.28934907 -32 24 C-32 23.01 -32 22.02 -32 21 C-30.68 21 -29.36 21 -28 21 C-27.67 20.34 -27.34 19.68 -27 19 C-27 19.66 -27 20.32 -27 21 C-26.34 21 -25.68 21 -25 21 C-24.67 20.34 -24.34 19.68 -24 19 C-23.01 19.33 -22.02 19.66 -21 20 C-17.61953648 19.57744206 -16.30407506 18.40007819 -14 16 C-11.8125 14.8125 -11.8125 14.8125 -10 14 C-10.33 12.02 -10.66 10.04 -11 8 C-10.34 8 -9.68 8 -9 8 C-8.7525 7.4225 -8.505 6.845 -8.25 6.25 C-6.15415198 2.47747356 -4.46699396 0 0 0 Z " fill="#2677BA" transform="translate(459,192)"/>
<path d="M0 0 C1.18065177 4.03731816 0.73022119 7.5220719 0.125 11.625 C0.03347656 12.305625 -0.05804688 12.98625 -0.15234375 13.6875 C-0.85789406 18.71578812 -0.85789406 18.71578812 -2 21 C-1.71758117 23.3400417 -1.38749213 25.67504723 -1 28 C1.60444348 28.05394705 4.20776998 28.09364469 6.8125 28.125 C7.91948242 28.15013672 7.91948242 28.15013672 9.04882812 28.17578125 C12.91246426 28.21074628 14.70903668 28.19397555 18 26 C20.04296875 25.8046875 20.04296875 25.8046875 22.1875 25.875 C23.445625 25.91625 24.70375 25.9575 26 26 C25.67 26.99 25.34 27.98 25 29 C18.3834111 31.35637954 11.95805063 31.23820984 5 31.125 C3.93910156 31.11597656 2.87820312 31.10695313 1.78515625 31.09765625 C-0.81013638 31.07427524 -3.40494465 31.04150556 -6 31 C-5.48089929 23.75229032 -4.20271888 16.91609716 -2.4375 9.875 C-2.20353516 8.91851562 -1.96957031 7.96203125 -1.72851562 6.9765625 C-1.15838044 4.64948012 -0.58214777 2.32410068 0 0 Z " fill="#54669A" transform="translate(170,248)"/>
<path d="M0 0 C31.35 0 62.7 0 95 0 C95 0.33 95 0.66 95 1 C84.5334122 1.30922102 74.06654376 1.60555729 63.59914112 1.8859272 C58.73752328 2.01654074 53.8761051 2.15141381 49.01489258 2.29638672 C44.31428103 2.43640723 39.61347644 2.56476166 34.91232872 2.68539047 C33.12828918 2.73315001 31.34435264 2.78495161 29.56055641 2.84106827 C19.43577173 3.15666929 9.97169975 3.05096424 0 1 C0 0.67 0 0.34 0 0 Z " fill="#275391" transform="translate(338,177)"/>
<path d="M0 0 C2.97 0.495 2.97 0.495 6 1 C6 2.32 6 3.64 6 5 C-25.68 4.67 -57.36 4.34 -90 4 C-90 3.67 -90 3.34 -90 3 C-79.42950675 2.84591087 -68.85894859 2.69773201 -58.28826809 2.5570364 C-53.3795513 2.49151703 -48.47087961 2.42398477 -43.56225586 2.35180664 C-38.82258197 2.28218764 -34.08286261 2.21791583 -29.34306526 2.15730476 C-27.53740889 2.1332837 -25.73177681 2.10735664 -23.92617607 2.07946587 C-21.39149646 2.04064313 -18.85681411 2.00868192 -16.32202148 1.97827148 C-15.20963104 1.95885246 -15.20963104 1.95885246 -14.07476807 1.93904114 C-9.58846865 1.89389818 -5.40825392 2.26233772 -1 3 C-0.67 2.01 -0.34 1.02 0 0 Z " fill="#28508A" transform="translate(442,144)"/>
<path d="M0 0 C0.66 0 1.32 0 2 0 C2 0.66 2 1.32 2 2 C26.09 2.33 50.18 2.66 75 3 C75 3.33 75 3.66 75 4 C73.75758293 4.00546844 73.75758293 4.00546844 72.49006653 4.01104736 C64.67711242 4.04894361 56.86457504 4.10581462 49.05191517 4.18390274 C45.03548888 4.22338054 41.01928192 4.2555673 37.00268555 4.27099609 C33.12502673 4.28616106 29.24797089 4.32060269 25.37058067 4.36830902 C23.89269952 4.38312467 22.41473229 4.39104113 20.93677711 4.39188385 C18.86320652 4.39425493 16.79130044 4.42134049 14.71801758 4.45410156 C12.94930046 4.46742523 12.94930046 4.46742523 11.14485168 4.48101807 C6.50310693 5.2470261 4.22915489 7.77084511 1 11 C-1.03684712 6.92630576 -1.0257259 4.41062136 0 0 Z " fill="#2D6BA4" transform="translate(225,144)"/>
<path d="M0 0 C1.65 0.33 3.3 0.66 5 1 C5 6.61 5 12.22 5 18 C4.67 18 4.34 18 4 18 C3.83564453 16.95199219 3.83564453 16.95199219 3.66796875 15.8828125 C3.50941406 14.97273437 3.35085938 14.06265625 3.1875 13.125 C3.03667969 12.22007812 2.88585937 11.31515625 2.73046875 10.3828125 C2.16948699 7.65587522 2.16948699 7.65587522 -1 6 C-3.85049895 5.67048702 -3.85049895 5.67048702 -7.1237793 5.68115234 C-8.38486008 5.66128265 -9.64594086 5.64141296 -10.94523621 5.62094116 C-12.32156194 5.60906478 -13.69788953 5.59740192 -15.07421875 5.5859375 C-16.48241819 5.56722711 -17.8906064 5.54765379 -19.29878235 5.5272522 C-23.00258773 5.47591107 -26.70642946 5.43629615 -30.41040039 5.39910889 C-34.1910096 5.35908153 -37.97146732 5.30798344 -41.75195312 5.2578125 C-49.16786484 5.16102983 -56.5838498 5.07663274 -64 5 C-64 4.67 -64 4.34 -64 4 C-63.24244919 3.99413376 -62.48489838 3.98826752 -61.70439148 3.98222351 C-54.5677729 3.92433762 -47.4315051 3.8522853 -40.29519939 3.76428509 C-36.62626526 3.71954286 -32.95744315 3.68029566 -29.28833008 3.65356445 C-25.74789938 3.62756926 -22.20789888 3.58719483 -18.66773415 3.53681374 C-16.65868965 3.51199022 -14.64947883 3.50209019 -12.64030457 3.49235535 C-11.41926529 3.47256119 -10.19822601 3.45276703 -8.94018555 3.43237305 C-7.86318893 3.42126999 -6.78619232 3.41016693 -5.67655945 3.39872742 C-2.94878847 3.26734562 -2.94878847 3.26734562 -1.4412384 1.41047668 C-0.96562973 0.94501938 -0.49002106 0.47956207 0 0 Z " fill="#577CA2" transform="translate(275,208)"/>
<path d="M0 0 C1.32 0 2.64 0 4 0 C3.26096008 4.27821999 2.00097851 8.33004036 0.625 12.4375 C0.41617187 13.08009766 0.20734375 13.72269531 -0.0078125 14.38476562 C-1.36120606 18.44907251 -2.99907088 22.21461654 -5 26 C-5.33 26 -5.66 26 -6 26 C-6.19627391 24.41773035 -6.38165538 22.83410729 -6.5625 21.25 C-6.66691406 20.36828125 -6.77132813 19.4865625 -6.87890625 18.578125 C-6.99622124 16.08045095 -6.71170091 14.37233635 -6 12 C-5.65421232 10.00211562 -5.31856451 8.00240549 -5 6 C-3.68 6.33 -2.36 6.66 -1 7 C-0.67 4.69 -0.34 2.38 0 0 Z " fill="#1972B7" transform="translate(310,224)"/>
<path d="M0 0 C5.70107533 1.22889846 10.27207005 3.70352535 13.81640625 8.4140625 C16.12652243 12.18818001 18.12202052 15.63028601 19 20 C17.68 20 16.36 20 15 20 C14.8453125 19.0409375 14.8453125 19.0409375 14.6875 18.0625 C14.460625 17.381875 14.23375 16.70125 14 16 C13.01 15.67 12.02 15.34 11 15 C11 12.36 11 9.72 11 7 C10.01 7 9.02 7 8 7 C8 7.66 8 8.32 8 9 C6.35 9 4.7 9 3 9 C0 2.25 0 2.25 0 0 Z " fill="#5A97C4" transform="translate(295,175)"/>
<path d="M0 0 C0.73828125 2.67578125 0.73828125 2.67578125 1 6 C-0.58203125 8.66796875 -0.58203125 8.66796875 -2.8125 11.1875 C-3.54082031 12.02667969 -4.26914062 12.86585938 -5.01953125 13.73046875 C-5.67308594 14.47941406 -6.32664062 15.22835938 -7 16 C-7.66 16.99 -8.32 17.98 -9 19 C-9.66 18.67 -10.32 18.34 -11 18 C-11.35412344 16.67203709 -11.68521554 15.33783393 -12 14 C-12.66 13.01 -13.32 12.02 -14 11 C-12.125 10.375 -12.125 10.375 -10 10 C-9.34 10.66 -8.68 11.32 -8 12 C-7.90203125 11.38511719 -7.8040625 10.77023437 -7.703125 10.13671875 C-6.47302291 3.48780488 -6.47302291 3.48780488 -4 0.9375 C-2 0 -2 0 0 0 Z " fill="#3C80BB" transform="translate(303,246)"/>
<path d="M0 0 C-5.43292674 2.71646337 -13.04506266 2 -19 2 C-22.37193444 2.29752363 -22.92793519 2.91792619 -25.25 5.5625 C-25.8275 6.366875 -26.405 7.17125 -27 8 C-27 6.68 -27 5.36 -27 4 C-28.98 4.33 -30.96 4.66 -33 5 C-24.98389035 -1.72505353 -9.46227476 -5.56604397 0 0 Z " fill="#3E85BC" transform="translate(253,110)"/>
<path d="M0 0 C0.66 0 1.32 0 2 0 C1.814375 0.70125 1.62875 1.4025 1.4375 2.125 C0.78068355 5.01363394 0.78068355 5.01363394 1.875 7.75 C2.07907229 13.05587954 -1.5992921 16.18374425 -5 20 C-5.66 19.67 -6.32 19.34 -7 19 C-6.29270211 12.98796793 -4.76600417 8.33443661 -2 3 C-1.34 3 -0.68 3 0 3 C0 2.01 0 1.02 0 0 Z " fill="#2D4E99" transform="translate(197,143)"/>
<path d="M0 0 C0.66 0 1.32 0 2 0 C2.33 0.66 2.66 1.32 3 2 C5.02463255 2.65213292 5.02463255 2.65213292 7 3 C5.35 3.33 3.7 3.66 2 4 C2.66 4.33 3.32 4.66 4 5 C4 5.66 4 6.32 4 7 C13.57 7.33 23.14 7.66 33 8 C33 8.33 33 8.66 33 9 C21.78 9 10.56 9 -1 9 C-0.67 6.03 -0.34 3.06 0 0 Z " fill="#5F70A3" transform="translate(315,270)"/>
<path d="M0 0 C-1.41601714 0.48108275 -2.83284437 0.95978141 -4.25 1.4375 C-5.03890625 1.70433594 -5.8278125 1.97117187 -6.640625 2.24609375 C-7.41921875 2.49488281 -8.1978125 2.74367188 -9 3 C-9.55171875 3.17853516 -10.1034375 3.35707031 -10.671875 3.54101562 C-13.97926442 4.19305968 -17.25328747 4.12235959 -20.609375 4.09765625 C-21.33618469 4.0962413 -22.06299438 4.09482635 -22.81182861 4.09336853 C-25.12459494 4.08778792 -27.43726312 4.07523904 -29.75 4.0625 C-31.32161318 4.05748249 -32.89322789 4.05292002 -34.46484375 4.04882812 C-38.30993343 4.03782485 -42.1549501 4.02057361 -46 4 C-46 3.67 -46 3.34 -46 3 C-39.35958878 1.77600548 -32.79778303 1.88772247 -26.0625 1.9375 C-24.32129883 1.94426758 -24.32129883 1.94426758 -22.54492188 1.95117188 C-19.69656066 1.96289353 -16.84830778 1.9793024 -14 2 C-13.67 1.34 -13.34 0.68 -13 0 C-11.07421875 -0.44921875 -11.07421875 -0.44921875 -8.6875 -0.6875 C-7.51767578 -0.81705078 -7.51767578 -0.81705078 -6.32421875 -0.94921875 C-4.00712895 -0.99984424 -2.20712606 -0.67173402 0 0 Z " fill="#507FB4" transform="translate(279,275)"/>
<path d="M0 0 C-7.42382099 5.61802669 -15.66254594 8.70471351 -25 8 C-25 7.01 -25 6.02 -25 5 C-23.68 5 -22.36 5 -21 5 C-20.67 4.34 -20.34 3.68 -20 3 C-20 3.66 -20 4.32 -20 5 C-19.34 5 -18.68 5 -18 5 C-17.67 4.34 -17.34 3.68 -17 3 C-16.01 3.33 -15.02 3.66 -14 4 C-10.6294912 3.5786864 -9.29679363 2.39665423 -7 0 C-3.86650268 -1.04449911 -3.01031744 -0.93423645 0 0 Z " fill="#6093BE" transform="translate(452,208)"/>
<path d="M0 0 C0.33 0.66 0.66 1.32 1 2 C1.99 2.33 2.98 2.66 4 3 C4.125 5.375 4.125 5.375 4 8 C2 10 2 10 -1.0390625 10.1953125 C-2.22242188 10.17210937 -3.40578125 10.14890625 -4.625 10.125 C-5.81351562 10.10695312 -7.00203125 10.08890625 -8.2265625 10.0703125 C-9.14179688 10.04710937 -10.05703125 10.02390625 -11 10 C-8 8 -8 8 -5 8 C-4.34 6.68 -3.68 5.36 -3 4 C-2.34 4 -1.68 4 -1 4 C-0.67 2.68 -0.34 1.36 0 0 Z " fill="#216CB0" transform="translate(277,230)"/>
<path d="M0 0 C0.99 0.33 1.98 0.66 3 1 C2.67 1.33 2.34 1.66 2 2 C3.299375 1.979375 4.59875 1.95875 5.9375 1.9375 C7.29165633 1.91600546 8.64756083 1.92851801 10 2 C10.33 2.33 10.66 2.66 11 3 C12.55948542 3.15686249 14.12542668 3.25076639 15.69140625 3.31640625 C17.10776367 3.37924805 17.10776367 3.37924805 18.55273438 3.44335938 C20.04256836 3.50233398 20.04256836 3.50233398 21.5625 3.5625 C23.05813477 3.62727539 23.05813477 3.62727539 24.58398438 3.69335938 C27.0558415 3.79980298 29.5278031 3.90181928 32 4 C32 4.33 32 4.66 32 5 C27.05209823 5.0493651 22.10433917 5.08570269 17.15625 5.10986328 C15.47230534 5.11993317 13.78837821 5.13358988 12.10449219 5.15087891 C9.68680499 5.17508426 7.26934857 5.18647296 4.8515625 5.1953125 C4.0963028 5.20563507 3.34104309 5.21595764 2.56289673 5.22659302 C0.7070602 5.22699318 -1.1481928 5.12222716 -3 5 C-3.66 4.34 -4.32 3.68 -5 3 C-2.6875 1.4375 -2.6875 1.4375 0 0 Z " fill="#325796" transform="translate(201,274)"/>
<path d="M0 0 C2.64 0.66 5.28 1.32 8 2 C8 4.64 8 7.28 8 10 C6.68 10 5.36 10 4 10 C3.67 10.99 3.34 11.98 3 13 C2.67 13 2.34 13 2 13 C1.34 8.71 0.68 4.42 0 0 Z " fill="#22408F" transform="translate(463,175)"/>
<path d="M0 0 C1.32 0.66 2.64 1.32 4 2 C3.67 3.32 3.34 4.64 3 6 C2.34 6 1.68 6 1 6 C0.67 6.99 0.34 7.98 0 9 C1.32 9.99 2.64 10.98 4 12 C1.63707344 14.52588702 0.33537489 15.88820837 -3 17 C-2.69268013 14.35346869 -2.37940678 11.707885 -2.0625 9.0625 C-1.97548828 8.30775391 -1.88847656 7.55300781 -1.79882812 6.77539062 C-1.11328125 1.11328125 -1.11328125 1.11328125 0 0 Z " fill="#243C89" transform="translate(172,247)"/>
<path d="M0 0 C0.99 0.33 1.98 0.66 3 1 C3.94921875 2.9609375 3.94921875 2.9609375 4.6875 5.375 C4.93886719 6.16648437 5.19023437 6.95796875 5.44921875 7.7734375 C6 10 6 10 6 13 C5.34 13 4.68 13 4 13 C3.34 12.34 2.68 11.68 2 11 C1.29875 10.401875 0.5975 9.80375 -0.125 9.1875 C-2 7 -2 7 -2.25 4.25 C-2.1675 3.5075 -2.085 2.765 -2 2 C-1.34 2 -0.68 2 0 2 C0 1.34 0 0.68 0 0 Z " fill="#3B4F93" transform="translate(474,121)"/>
<path d="M0 0 C0.33 0 0.66 0 1 0 C0.47793829 6.26474055 -0.70576408 12.03665488 -2.30078125 18.11328125 C-3.18003792 21.74328502 -3.64285446 25.28568642 -4 29 C-4.33 29 -4.66 29 -5 29 C-5.48032961 19.12655793 -4.88410273 8.83385538 0 0 Z " fill="#5B75A8" transform="translate(356,236)"/>
<path d="M0 0 C2.31050708 3.46576061 2.1670818 4.36881959 1.75 8.375 C1.61851562 9.77878906 1.61851562 9.77878906 1.484375 11.2109375 C0.99174456 14.04753533 0.14476652 16.367037 -1 19 C-1.33 19.99 -1.66 20.98 -2 22 C-2.66 22 -3.32 22 -4 22 C-4.33 22.66 -4.66 23.32 -5 24 C-4.31697126 18.58609855 -3.22293698 13.36322421 -1.9375 8.0625 C-1.75123047 7.28326172 -1.56496094 6.50402344 -1.37304688 5.70117188 C-0.91818991 3.80010303 -0.4594938 1.89995343 0 0 Z " fill="#4A619A" transform="translate(335,183)"/>
<path d="M0 0 C14.85 0 29.7 0 45 0 C45 0.99 45 1.98 45 3 C44.01 3.33 43.02 3.66 42 4 C41.505 3.01 41.505 3.01 41 2 C20.705 1.505 20.705 1.505 0 1 C0 0.67 0 0.34 0 0 Z " fill="#2D528D" transform="translate(406,108)"/>
<path d="M0 0 C0 5.61 0 11.22 0 17 C-0.33 17 -0.66 17 -1 17 C-1.10957031 16.30132812 -1.21914063 15.60265625 -1.33203125 14.8828125 C-1.49058594 13.97273437 -1.64914062 13.06265625 -1.8125 12.125 C-1.96332031 11.22007812 -2.11414063 10.31515625 -2.26953125 9.3828125 C-2.83051301 6.65587522 -2.83051301 6.65587522 -6 5 C-6 4.01 -6 3.02 -6 2 C-6.66 1.67 -7.32 1.34 -8 1 C-5 -1 -5 -1 0 0 Z " fill="#4282BB" transform="translate(280,209)"/>
<path d="M0 0 C-0.33 3.3 -0.66 6.6 -1 10 C-7.6 10 -14.2 10 -21 10 C-16.60405194 7.80202597 -15.00732024 7.89926798 -10.25 8.375 C-9.07953125 8.48585938 -7.9090625 8.59671875 -6.703125 8.7109375 C-5.81109375 8.80632812 -4.9190625 8.90171875 -4 9 C-4.185625 8.401875 -4.37125 7.80375 -4.5625 7.1875 C-5 5 -5 5 -4 2 C-1 0 -1 0 0 0 Z " fill="#2D4C8F" transform="translate(349,268)"/>
<path d="M0 0 C0.66 0.33 1.32 0.66 2 1 C1.34 3.31 0.68 5.62 0 8 C0.66 8 1.32 8 2 8 C2.1875 10.375 2.1875 10.375 2 13 C1.01 13.66 0.02 14.32 -1 15 C-1 14.34 -1 13.68 -1 13 C-1.99 13 -2.98 13 -4 13 C-3.71812064 11.20676747 -3.4241719 9.41542874 -3.125 7.625 C-2.96257812 6.62726563 -2.80015625 5.62953125 -2.6328125 4.6015625 C-2 2 -2 2 0 0 Z " fill="#253E8C" transform="translate(326,233)"/>
<path d="M0 0 C0.66 0 1.32 0 2 0 C2 0.66 2 1.32 2 2 C3.65 2 5.3 2 7 2 C5.3619751 5.51005335 3.96865509 8.45543849 1 11 C-1.03684712 6.92630576 -1.0257259 4.41062136 0 0 Z " fill="#2579BA" transform="translate(225,144)"/>
<path d="M0 0 C0.33 1.98 0.66 3.96 1 6 C-1.3125 7.5625 -1.3125 7.5625 -4 9 C-4.99 8.67 -5.98 8.34 -7 8 C-6.65930765 4.84859577 -6.41923159 3.39218439 -4.0625 1.1875 C-2 0 -2 0 0 0 Z " fill="#1D6EB7" transform="translate(303,246)"/>
<path d="M0 0 C0.99 0 1.98 0 3 0 C2.34 4.62 1.68 9.24 1 14 C-3.5 9.5 -3.5 9.5 -4 5 C-3.01 5 -2.02 5 -1 5 C-0.67 3.35 -0.34 1.7 0 0 Z " fill="#226DAF" transform="translate(223,155)"/>
<path d="M0 0 C0.33 0.99 0.66 1.98 1 3 C0.505 3.804375 0.01 4.60875 -0.5 5.4375 C-2.26274671 7.84522721 -2.26274671 7.84522721 -1.6875 10.3125 C-1.460625 10.869375 -1.23375 11.42625 -1 12 C-2.65 12.66 -4.3 13.32 -6 14 C-7 12 -7 12 -7 9 C-5.46875 6.73828125 -5.46875 6.73828125 -3.5 4.3125 C-2.8503125 3.50425781 -2.200625 2.69601563 -1.53125 1.86328125 C-1.0259375 1.24839844 -0.520625 0.63351563 0 0 Z " fill="#4A6AAB" transform="translate(209,122)"/>
<path d="M0 0 C-0.33724836 3.11954738 -0.6209965 4.6209965 -2.875 6.875 C-3.57625 7.24625 -4.2775 7.6175 -5 8 C-5.99 7.67 -6.98 7.34 -8 7 C-7.08529012 1.6946827 -5.46561428 0 0 0 Z " fill="#3965A7" transform="translate(219,117)"/>
<path d="M0 0 C3 1 3 1 4.25 2.8125 C5.11637742 5.33943414 4.88492145 6.52221994 4 9 C3.01 8.67 2.02 8.34 1 8 C0.67 8.66 0.34 9.32 0 10 C-1.36952673 7.26094655 -1.12621361 5.02912668 -1 2 C-0.67 1.34 -0.34 0.68 0 0 Z " fill="#253D8F" transform="translate(321,247)"/>
<path d="M0 0 C0.33 0 0.66 0 1 0 C1 9.24 1 18.48 1 28 C0.67 28 0.34 28 0 28 C-0.33820166 26.4176994 -0.67035939 24.83410625 -1 23.25 C-1.185625 22.36828125 -1.37125 21.4865625 -1.5625 20.578125 C-2 18 -2 18 -2 14 C-1.34 14 -0.68 14 0 14 C0 9.38 0 4.76 0 0 Z " fill="#75A5C9" transform="translate(314,195)"/>
<path d="M0 0 C0 0.99 0 1.98 0 3 C0.99 3 1.98 3 3 3 C2.67 4.65 2.34 6.3 2 8 C1.34 8 0.68 8 0 8 C-0.33 8.66 -0.66 9.32 -1 10 C-3.76223278 7.23776722 -3.57856291 4.79293383 -4 1 C-2 0 -2 0 0 0 Z " fill="#244A96" transform="translate(196,193)"/>
<path d="M0 0 C1.40253197 3.90705335 0.78824675 7.61121707 0.25 11.625 C0.17523438 12.305625 0.10046875 12.98625 0.0234375 13.6875 C-0.234375 15.6640625 -0.234375 15.6640625 -1 19 C-1.99 19.66 -2.98 20.32 -4 21 C-3.29843593 13.84404654 -1.69214979 6.98144819 0 0 Z " fill="#6977A6" transform="translate(170,248)"/>
<path d="M0 0 C0 0.66 0 1.32 0 2 C-2.98594424 3.49297212 -5.70853624 3.11755228 -9 3 C-9.66 2.67 -10.32 2.34 -11 2 C-11 1.34 -11 0.68 -11 0 C-6.53464227 -1.86921951 -4.33629181 -2.2956839 0 0 Z " fill="#233D91" transform="translate(328,274)"/>
<path d="M0 0 C0.66 0 1.32 0 2 0 C0.90301833 5.69139902 -0.54053077 10.74567937 -3 16 C-3.33 16 -3.66 16 -4 16 C-4.5326514 9.741346 -2.81849506 5.54891215 0 0 Z " fill="#5B6EA6" transform="translate(475,169)"/>
<path d="M0 0 C0.66 0.33 1.32 0.66 2 1 C1.88590407 2.45922693 1.75834456 3.91740598 1.625 5.375 C1.55539062 6.18710938 1.48578125 6.99921875 1.4140625 7.8359375 C1 10 1 10 -1 12 C-1.67292501 13.96690374 -1.67292501 13.96690374 -2.125 16.125 C-2.41375 17.40375 -2.7025 18.6825 -3 20 C-4.04940487 16.85178538 -3.98606526 16.0650509 -3.22265625 12.98828125 C-3.03896484 12.23095703 -2.85527344 11.47363281 -2.66601562 10.69335938 C-2.46685547 9.90767578 -2.26769531 9.12199219 -2.0625 8.3125 C-1.86720703 7.51521484 -1.67191406 6.71792969 -1.47070312 5.89648438 C-0.98771618 3.92919611 -0.4948037 1.96434946 0 0 Z " fill="#6B79A9" transform="translate(326,223)"/>
<path d="M0 0 C-1.14920536 4.59682146 -2.09591658 7.12788877 -5 11 C-5.33 7.7 -5.66 4.4 -6 1 C-4 0 -4 0 0 0 Z " fill="#4A8BC1" transform="translate(309,239)"/>
<path d="M0 0 C0.33 0.66 0.66 1.32 1 2 C1.66 2 2.32 2 3 2 C3.33 1.34 3.66 0.68 4 0 C4.99 0.99 5.98 1.98 7 3 C6.01 3 5.02 3 4 3 C4 3.66 4 4.32 4 5 C1.36 5 -1.28 5 -4 5 C-4 4.01 -4 3.02 -4 2 C-2.68 2 -1.36 2 0 2 C0 1.34 0 0.68 0 0 Z " fill="#3B7FBA" transform="translate(431,211)"/>
<path d="M0 0 C2.3125 0.125 2.3125 0.125 5 1 C8 5.86206897 8 5.86206897 8 9 C6.68 9 5.36 9 4 9 C3.896875 8.360625 3.79375 7.72125 3.6875 7.0625 C3.460625 6.381875 3.23375 5.70125 3 5 C2.01 4.67 1.02 4.34 0 4 C0 2.68 0 1.36 0 0 Z " fill="#3B84C3" transform="translate(306,186)"/>
<path d="M0 0 C-0.33 0.66 -0.66 1.32 -1 2 C-1.99 2 -2.98 2 -4 2 C-6.20142332 4.4390706 -6.20142332 4.4390706 -8 7 C-8 5.68 -8 4.36 -8 3 C-9.98 3.33 -11.96 3.66 -14 4 C-8.89306527 0.08468337 -6.36484364 -0.10265877 0 0 Z " fill="#3E76AE" transform="translate(234,111)"/>
<path d="M0 0 C1.32 0.66 2.64 1.32 4 2 C-0.455 4.97 -0.455 4.97 -5 8 C-5.66 7.67 -6.32 7.34 -7 7 C-7 6.01 -7 5.02 -7 4 C-5.02 3.67 -3.04 3.34 -1 3 C-0.67 2.01 -0.34 1.02 0 0 Z " fill="#5991BE" transform="translate(286,266)"/>
<path d="M0 0 C1.32 0 2.64 0 4 0 C3.34728444 3.51705958 2.48606976 6.89325077 1.4375 10.3125 C1.16808594 11.19550781 0.89867187 12.07851562 0.62109375 12.98828125 C0.41613281 13.65214844 0.21117187 14.31601563 0 15 C-1.09651823 11.58860997 -0.94215473 8.79344419 -0.5625 5.25 C-0.46066406 4.26515625 -0.35882813 3.2803125 -0.25390625 2.265625 C-0.17011719 1.51796875 -0.08632813 0.7703125 0 0 Z " fill="#508DBD" transform="translate(310,224)"/>
<path d="M0 0 C3.8359375 0.7734375 3.8359375 0.7734375 5.3125 2.8125 C6.10151327 5.32299678 5.87324262 6.55492066 5 9 C4.01 8.67 3.02 8.34 2 8 C1.26953125 6.15234375 1.26953125 6.15234375 0.8125 3.9375 C0.65394531 3.20402344 0.49539063 2.47054687 0.33203125 1.71484375 C0.22246094 1.14894531 0.11289062 0.58304688 0 0 Z " fill="#3A7FBD" transform="translate(295,175)"/>
<path d="M0 0 C0.33 0 0.66 0 1 0 C1 2.64 1 5.28 1 8 C0.01 8 -0.98 8 -2 8 C-2 8.99 -2 9.98 -2 11 C-2.66 11 -3.32 11 -4 11 C-4.33 12.32 -4.66 13.64 -5 15 C-5.33 14.34 -5.66 13.68 -6 13 C-5.29296875 10.9765625 -5.29296875 10.9765625 -4.1875 8.625 C-3.83042969 7.85414063 -3.47335938 7.08328125 -3.10546875 6.2890625 C-2.08844182 4.18313395 -1.05348413 2.08790067 0 0 Z " fill="#647DB0" transform="translate(199,135)"/>
<path d="M0 0 C0 1.32 0 2.64 0 4 C-1.98 4.66 -3.96 5.32 -6 6 C-6.33 5.01 -6.66 4.02 -7 3 C-7.66 2.67 -8.32 2.34 -9 2 C-3.375 0 -3.375 0 0 0 Z " fill="#2C5CA1" transform="translate(226,114)"/>
<path d="M0 0 C0.33 0 0.66 0 1 0 C1 1.98 1 3.96 1 6 C0.01 6.495 0.01 6.495 -1 7 C-2.35308313 8.31328657 -3.68870078 9.64499081 -5 11 C-5.33 10.01 -5.66 9.02 -6 8 C-5.34 7.01 -4.68 6.02 -4 5 C-3.34 5 -2.68 5 -2 5 C-1.34 3.35 -0.68 1.7 0 0 Z " fill="#24428D" transform="translate(334,209)"/>
<path d="M0 0 C4.4571874 0.26218749 6.51522698 0.57711289 9.9375 3.5625 C10.618125 4.366875 11.29875 5.17125 12 6 C10.02 6 8.04 6 6 6 C5.67 5.34 5.34 4.68 5 4 C3.35636866 3.27840576 1.68949614 2.60648579 0 2 C0 1.34 0 0.68 0 0 Z " fill="#4D649D" transform="translate(459,110)"/>
<path d="M0 0 C0.66 0 1.32 0 2 0 C2.19294408 4.82360189 1.75747614 8.49646738 0 13 C-0.33 13 -0.66 13 -1 13 C-1.02686553 11.02090602 -1.04633375 9.04171029 -1.0625 7.0625 C-1.07410156 5.96035156 -1.08570313 4.85820312 -1.09765625 3.72265625 C-1 1 -1 1 0 0 Z " fill="#5F7AB0" transform="translate(360,215)"/>
<path d="M0 0 C7.56363636 -0.29090909 7.56363636 -0.29090909 11 2 C11.66 2.66 12.32 3.32 13 4 C10.07406105 4.85637238 7.91825712 5.38673104 5.04296875 4.17578125 C3.32488268 3.17852152 1.65798613 2.09427085 0 1 C0 0.67 0 0.34 0 0 Z " fill="#5372AA" transform="translate(199,207)"/>
<path d="M0 0 C2.475 0.495 2.475 0.495 5 1 C5 1.66 5 2.32 5 3 C5.99 3 6.98 3 8 3 C7.67 3.66 7.34 4.32 7 5 C6.34 4.67 5.68 4.34 5 4 C4.34 6.64 3.68 9.28 3 12 C2.67 12 2.34 12 2 12 C1.93941406 11.38511719 1.87882812 10.77023438 1.81640625 10.13671875 C1.73261719 9.32847656 1.64882813 8.52023438 1.5625 7.6875 C1.48128906 6.88699219 1.40007812 6.08648437 1.31640625 5.26171875 C1.04734307 2.83912821 1.04734307 2.83912821 0 0 Z " fill="#6F9BCB" transform="translate(443,149)"/>
<path d="M0 0 C0.66 0.99 1.32 1.98 2 3 C0.7260411 5.03833424 -0.61061923 7.03852126 -2 9 C-2.66 9 -3.32 9 -4 9 C-3.125 4.25 -3.125 4.25 -2 2 C-1.34 2 -0.68 2 0 2 C0 1.34 0 0.68 0 0 Z " fill="#405B9A" transform="translate(469,183)"/>
<path d="M0 0 C1.98567708 0.09765625 3.97135417 0.1953125 5.95703125 0.29296875 C5.62703125 1.28296875 5.29703125 2.27296875 4.95703125 3.29296875 C1.65703125 3.29296875 -1.64296875 3.29296875 -5.04296875 3.29296875 C-2.04296875 0.29296875 -2.04296875 0.29296875 0 0 Z " fill="#1F4796" transform="translate(190.04296875,273.70703125)"/>
<path d="M0 0 C3 3 3 3 3.29296875 5.04296875 C3.1953125 7.02864583 3.09765625 9.01432292 3 11 C1.68 10.34 0.36 9.68 -1 9 C-0.67 6.03 -0.34 3.06 0 0 Z " fill="#394C91" transform="translate(172,239)"/>
<path d="M0 0 C2.278495 4.55698999 1.98806307 6.14950854 1 11 C0.67 11.66 0.34 12.32 0 13 C-0.66 13 -1.32 13 -2 13 C-1.34 8.71 -0.68 4.42 0 0 Z " fill="#616FA1" transform="translate(319,251)"/>
<path d="M0 0 C0.66 0.33 1.32 0.66 2 1 C0.75023244 4.65316671 0.32901247 5.78065836 -3 8 C-4.125 3.25 -4.125 3.25 -3 1 C-2.01 0.67 -1.02 0.34 0 0 Z " fill="#4E89C1" transform="translate(299,253)"/>
<path d="M0 0 C-0.99 0.33 -1.98 0.66 -3 1 C-3 1.66 -3 2.32 -3 3 C-3.61875 3.12375 -4.2375 3.2475 -4.875 3.375 C-7.19120832 3.87197356 -7.19120832 3.87197356 -9 6 C-8.67 4.02 -8.34 2.04 -8 0 C-2.25 -1.125 -2.25 -1.125 0 0 Z " fill="#224492" transform="translate(345,180)"/>
<path d="M0 0 C0.99 0.33 1.98 0.66 3 1 C2 3 1 5 0 7 C-1.32 7 -2.64 7 -4 7 C-2.79618552 4.50638429 -1.54571278 2.31856917 0 0 Z " fill="#1D509C" transform="translate(219,119)"/>
<path d="M0 0 C0.66 0 1.32 0 2 0 C1.6875 1.875 1.6875 1.875 1 4 C-2.4352048 6.29013653 -3.985331 6.17842973 -8 6 C-5 4 -5 4 -2 4 C-1.34 2.68 -0.68 1.36 0 0 Z " fill="#4C80AF" transform="translate(274,234)"/>
<path d="M0 0 C0.99 0.33 1.98 0.66 3 1 C2.01 2.485 2.01 2.485 1 4 C0.34 4 -0.32 4 -1 4 C-1.66 5.65 -2.32 7.3 -3 9 C-3.33 9 -3.66 9 -4 9 C-4 7.35 -4 5.7 -4 4 C-2.68 3.34 -1.36 2.68 0 2 C0 1.34 0 0.68 0 0 Z " fill="#699CC5" transform="translate(464,192)"/>
<path d="M0 0 C0.1953125 6.0546875 0.1953125 6.0546875 0 8 C-0.66 8.66 -1.32 9.32 -2 10 C-3.1875 7.25 -3.1875 7.25 -4 4 C-1.78947368 0 -1.78947368 0 0 0 Z " fill="#1F4C97" transform="translate(357,228)"/>
<path d="M0 0 C0.33 0.66 0.66 1.32 1 2 C1.66 2 2.32 2 3 2 C3 3.65 3 5.3 3 7 C2.01 7.33 1.02 7.66 0 8 C0 7.34 0 6.68 0 6 C-0.66 5.67 -1.32 5.34 -2 5 C-1.34 3.35 -0.68 1.7 0 0 Z " fill="#3780BC" transform="translate(457,195)"/>
<path d="M0 0 C0.33 0.66 0.66 1.32 1 2 C3.64 2 6.28 2 9 2 C5.5647952 4.29013653 4.014669 4.17842973 0 4 C-0.33 4.66 -0.66 5.32 -1 6 C-1.042721 4.33388095 -1.04063832 2.66617115 -1 1 C-0.67 0.67 -0.34 0.34 0 0 Z " fill="#3E599D" transform="translate(337,176)"/>
<path d="M0 0 C2.97 0.495 2.97 0.495 6 1 C6 2.32 6 3.64 6 5 C4.68 5 3.36 5 2 5 C2 4.34 2 3.68 2 3 C1.01 3 0.02 3 -1 3 C-0.67 2.01 -0.34 1.02 0 0 Z " fill="#1E4795" transform="translate(442,144)"/>
<path d="M0 0 C0.99 0 1.98 0 3 0 C2.34 4.62 1.68 9.24 1 14 C0.67 14 0.34 14 0 14 C0 9.38 0 4.76 0 0 Z " fill="#6FAAD5" transform="translate(223,155)"/>
<path d="M0 0 C0.66 0 1.32 0 2 0 C2.33 1.98 2.66 3.96 3 6 C2.01 6.66 1.02 7.32 0 8 C0.33 6.68 0.66 5.36 1 4 C0.01 4 -0.98 4 -2 4 C-1.34 2.68 -0.68 1.36 0 0 Z " fill="#3C84C1" transform="translate(301,246)"/>
<path d="M0 0 C1.76838944 3.34834394 2.66898318 6.19330655 3 10 C2.34 10.66 1.68 11.32 1 12 C0 11 0 11 -0.09765625 8.49609375 C-0.08605469 7.48675781 -0.07445312 6.47742188 -0.0625 5.4375 C-0.05347656 4.42558594 -0.04445312 3.41367188 -0.03515625 2.37109375 C-0.02355469 1.58863281 -0.01195312 0.80617187 0 0 Z " fill="#244485" transform="translate(189,181)"/>
<path d="M0 0 C0.99 0 1.98 0 3 0 C3.33 2.31 3.66 4.62 4 7 C3.01 7.495 3.01 7.495 2 8 C2 7.01 2 6.02 2 5 C1.34 5 0.68 5 0 5 C0 3.35 0 1.7 0 0 Z " fill="#465192" transform="translate(165,269)"/>
<path d="M0 0 C0.33 0 0.66 0 1 0 C1 1.65 1 3.3 1 5 C0.38125 5.28875 -0.2375 5.5775 -0.875 5.875 C-3.13325765 6.93720042 -3.13325765 6.93720042 -5 9 C-4.42680151 5.13091017 -2.56186024 2.88209277 0 0 Z " fill="#1D70B7" transform="translate(228,115)"/>
<path d="M0 0 C0.99 0.33 1.98 0.66 3 1 C1.515 4.465 1.515 4.465 0 8 C-0.33 8 -0.66 8 -1 8 C-1.125 2.25 -1.125 2.25 0 0 Z " fill="#263C80" transform="translate(321,247)"/>
<path d="M0 0 C0.33 0.66 0.66 1.32 1 2 C1.66 2 2.32 2 3 2 C2.67 2.99 2.34 3.98 2 5 C0.68 5 -0.64 5 -2 5 C-2.33 4.01 -2.66 3.02 -3 2 C-2.01 1.34 -1.02 0.68 0 0 Z " fill="#244294" transform="translate(333,219)"/>
<path d="M0 0 C2 3 2 3 1.625 5.6875 C1.41875 6.450625 1.2125 7.21375 1 8 C0.34 8 -0.32 8 -1 8 C-1.33 8.66 -1.66 9.32 -2 10 C-1.54177532 6.53058454 -1.10868317 3.32604951 0 0 Z " fill="#697DA9" transform="translate(332,197)"/>
<path d="M0 0 C0.66 0 1.32 0 2 0 C2.98120464 3.05263664 2.98120464 4.94736336 2 8 C1.34 8 0.68 8 0 8 C0 5.36 0 2.72 0 0 Z " fill="#1E70B4" transform="translate(304,182)"/>
<path d="M0 0 C1.32 0 2.64 0 4 0 C3.67 1.98 3.34 3.96 3 6 C2.67 5.34 2.34 4.68 2 4 C1.34 4 0.68 4 0 4 C0 2.68 0 1.36 0 0 Z " fill="#1E68AD" transform="translate(284,217)"/>
<path d="M0 0 C0.66 0.33 1.32 0.66 2 1 C1.6875 2.875 1.6875 2.875 1 5 C0.01 5.66 -0.98 6.32 -2 7 C-2 5.35 -2 3.7 -2 2 C-1.34 2 -0.68 2 0 2 C0 1.34 0 0.68 0 0 Z " fill="#224089" transform="translate(474,121)"/>
</svg>
